<svg width="1806" height="1646" viewBox="0 0 1806 1646" fill="none" xmlns="http://www.w3.org/2000/svg">
<mask id="mask0_1_48" style="mask-type:alpha" maskUnits="userSpaceOnUse" x="-40" y="0" width="1945" height="188">
<ellipse cx="77.7577" cy="94" rx="117.758" ry="94" fill="#D9D9D9"/>
<ellipse cx="291.318" cy="94" rx="117.758" ry="94" fill="#D9D9D9"/>
<ellipse cx="504.879" cy="94" rx="117.758" ry="94" fill="#D9D9D9"/>
<ellipse cx="718.439" cy="94" rx="117.758" ry="94" fill="#D9D9D9"/>
<ellipse cx="932" cy="94" rx="117.758" ry="94" fill="#D9D9D9"/>
<ellipse cx="1145.56" cy="94" rx="117.758" ry="94" fill="#D9D9D9"/>
<ellipse cx="1359.12" cy="94" rx="117.758" ry="94" fill="#D9D9D9"/>
<ellipse cx="1572.68" cy="94" rx="117.758" ry="94" fill="#D9D9D9"/>
<ellipse cx="1786.24" cy="94" rx="117.758" ry="94" fill="#D9D9D9"/>
</mask>
<g mask="url(#mask0_1_48)">
<path d="M2.91149 -1041H1805.2V94H2.91149V-1041Z" fill="#CFE2D6"/>
</g>
<rect y="94" width="1806" height="1501" fill="#CFE2D6"/>
<ellipse cx="91.4194" cy="1594.5" rx="91.4194" ry="51.5" fill="#CFE2D6"/>
<ellipse cx="253.735" cy="1594.5" rx="91.4194" ry="51.5" fill="#CFE2D6"/>
<ellipse cx="416.051" cy="1594.5" rx="91.4194" ry="51.5" fill="#CFE2D6"/>
<ellipse cx="578.368" cy="1594.5" rx="91.4194" ry="51.5" fill="#CFE2D6"/>
<ellipse cx="740.684" cy="1594.5" rx="91.4194" ry="51.5" fill="#CFE2D6"/>
<ellipse cx="903" cy="1594.5" rx="91.4194" ry="51.5" fill="#CFE2D6"/>
<ellipse cx="1065.32" cy="1594.5" rx="91.4194" ry="51.5" fill="#CFE2D6"/>
<ellipse cx="1227.63" cy="1594.5" rx="91.4194" ry="51.5" fill="#CFE2D6"/>
<ellipse cx="1389.95" cy="1594.5" rx="91.4194" ry="51.5" fill="#CFE2D6"/>
<ellipse cx="1552.26" cy="1594.5" rx="91.4194" ry="51.5" fill="#CFE2D6"/>
<ellipse cx="1714.58" cy="1594.5" rx="91.4194" ry="51.5" fill="#CFE2D6"/>
</svg>
